# xmcd CD database file
# Copyright (C) 1993-1998 Ti Kan
#
# Track frame offsets:
#	150
#	8770
#	26795
#	41710
#	54735
#	66035
#	77375
#	85215
#	100347
#	119847
#	132957
#	151752
#	161932
#	186270
#	197607
#	218527
#
# Disc length: 3161 seconds
#
# Revision: 0
# Processed by: cddbd v1.4b41PL1 Copyright (c) Steve Scherf et al.
# Submitted via: CDmax 1.5
#
DISCID=d70c5710
DTITLE=Marion Williams - If We Ever Needed The Lord Before
DYEAR=1900
DGENRE=
TTITLE0=When Was Jesus Born
TTITLE1=Amazing Grace
TTITLE2=I'm Looking To Jesus
TTITLE3=Packin' Up
TTITLE4=He's Got The Whole World In His Hands
TTITLE5=O Come, All Ye Faithful
TTITLE6=Joy To The World
TTITLE7=(There'll Be) Peace In The Valley
TTITLE8=Somebody Bigger Than You Or I
TTITLE9=He'll Understand And Say Well Done
TTITLE10=Swing Low, Sweet Chariot
TTITLE11=Michael Row The Boat Ashore
TTITLE12=I'm Going To Live The Life I Sing About In My Songs
TTITLE13=What Could I Do
TTITLE14=The Lord Will Make A Way Somehow
TTITLE15=If We Ever Needed The Lord Before
EXTD=
EXTT0=
EXTT1=
EXTT2=
EXTT3=
EXTT4=
EXTT5=
EXTT6=
EXTT7=
EXTT8=
EXTT9=
EXTT10=
EXTT11=
EXTT12=
EXTT13=
EXTT14=
EXTT15=
PLAYORDER=
